# xmcd
#
# Track frame offsets:
#	150
#	15552
#	33979
#	53801
#	69959
#	87479
#	104045
#	120199
#	136067
#	154666
#	172476
#	188638
#	201851
#	217143
#	231530
#	244412
#
# Disc length: 3454 seconds
#
# Revision: 1
# Processed by: cddbd v1.5.2PL0 Copyright (c) Steve Scherf et al.
# Submitted via: audiograbber 1.83.01
#
DISCID=e70d7c10
DTITLE=Various Artist - My Country Vol 1 - CD1
DYEAR=2010
DGENRE=Country
TTITLE0=Kenny Chesney - Don't Happen Twice
TTITLE1=Taylor Swift - Should've Said No
TTITLE2=Zac Brown Band - Toes
TTITLE3=Carrie Underwood - All-American Girl
TTITLE4=Tim McGraw - When The Stars Go Blue
TTITLE5=Rodney Atkins - If You're Going Through Hell
TTITLE6=Sugarland - All I Want To Do
TTITLE7=Toby Keith - Should've Been A Cowboy
TTITLE8=Trace Atkins - Honky Tonk Badokadonk
TTITLE9=Montgomery Gentry - Roll With Me
TTITLE10=Terri Clark - Girls Lie Too
TTITLE11=Dwight Yoakam - A Long Way Home
TTITLE12=Big and Rich - Save A Horse (Ride A Cowboy)
TTITLE13=John Michael Montgomery - Life's A Dance
TTITLE14=Trick Pony - Pour Me
TTITLE15=Melissa Lawson - What If It All Goes Right
EXTD=
EXTT0=
EXTT1=
EXTT2=
EXTT3=
EXTT4=
EXTT5=
EXTT6=
EXTT7=
EXTT8=
EXTT9=
EXTT10=
EXTT11=
EXTT12=
EXTT13=
EXTT14=
EXTT15=
PLAYORDER=
